# xmcd
#
# Track frame offsets: 
#        150
#        21328
#        42327
#        64108
#        84620
#        119438
#        135866
#        158649
#        176650
#        203499
#        223577
#        247176
#        270840
#        292388
#
# Disc length: 4520 seconds
#
# Revision: 2
# Processed by: cddbd v1.5.2PL0 Copyright (c) Steve Scherf et al.
# Submitted via: ExactAudioCopyFreeDBPlugin 1.0
#
DISCID=cb11a60e
DTITLE=The Blues Masters featuring Big Al Carson - 3 Phat Catz and 1 S
DTITLE=kinny Dogg
DYEAR=2010
DGENRE=Blues
TTITLE0=Callin' You Out
TTITLE1=Back to the Old School
TTITLE2=Black Cat Bone
TTITLE3=Hip Shakin' Mama
TTITLE4=School Boy Crush
TTITLE5=Don't Look Any Further
TTITLE6=It's Not the End of The World
TTITLE7=The Turning Point
TTITLE8=Who Knows
TTITLE9=One Really Good Sad Song
TTITLE10=I'll Play the Blues For You
TTITLE11=Sunday Funnies
TTITLE12=32-20 Blues
TTITLE13=A World Without You
EXTD=
EXTT0=
EXTT1=
EXTT2=
EXTT3=
EXTT4=
EXTT5=
EXTT6=
EXTT7=
EXTT8=
EXTT9=
EXTT10=
EXTT11=
EXTT12=
EXTT13=
PLAYORDER=
